<svg id="visual" viewBox="0 0 960 540" width="960" height="540" xmlns="http://www.w3.org/2000/svg" xmlns:xlink="http://www.w3.org/1999/xlink" version="1.1"><g stroke-width="1" stroke-linejoin="bevel"><path d="M465.7 280.5L474.7 327.5L497.3 293.5Z" fill="#00101c" stroke="#00101c"></path><path d="M465.7 280.5L424 342.5L474.7 327.5Z" fill="#19435d" stroke="#19435d"></path><path d="M497.3 293.5L509.3 234.4L465.7 280.5Z" fill="#205a7a" stroke="#205a7a"></path><path d="M509.3 234.4L471 220.5L465.7 280.5Z" fill="#246688" stroke="#246688"></path><path d="M465.7 280.5L398.7 336.7L424 342.5Z" fill="#297ea6" stroke="#297ea6"></path><path d="M379.7 319.6L398.7 336.7L465.7 280.5Z" fill="#297ea6" stroke="#297ea6"></path><path d="M424 342.5L496.3 392.8L474.7 327.5Z" fill="#112e42" stroke="#112e42"></path><path d="M474.7 327.5L568.3 308.6L497.3 293.5Z" fill="#112e42" stroke="#112e42"></path><path d="M497.3 293.5L581.7 260.5L509.3 234.4Z" fill="#277297" stroke="#277297"></path><path d="M495 398.6L496.3 392.8L422.3 397.6Z" fill="#19435d" stroke="#19435d"></path><path d="M554.7 382.7L568.3 308.6L474.7 327.5Z" fill="#15384f" stroke="#15384f"></path><path d="M371 255.4L379.7 319.6L465.7 280.5Z" fill="#205a7a" stroke="#205a7a"></path><path d="M379.7 319.6L387.3 344.5L398.7 336.7Z" fill="#0c2435" stroke="#0c2435"></path><path d="M398.7 336.7L387.3 344.5L424 342.5Z" fill="#277297" stroke="#277297"></path><path d="M422.3 397.6L496.3 392.8L424 342.5Z" fill="#00101c" stroke="#00101c"></path><path d="M554.7 382.7L576.7 319.5L568.3 308.6Z" fill="#246688" stroke="#246688"></path><path d="M471 220.5L427.7 213.4L465.7 280.5Z" fill="#0c2435" stroke="#0c2435"></path><path d="M554.7 382.7L474.7 327.5L496.3 392.8Z" fill="#205a7a" stroke="#205a7a"></path><path d="M387.3 344.5L422.3 397.6L424 342.5Z" fill="#081a28" stroke="#081a28"></path><path d="M578.7 395.6L586 317.5L576.7 319.5Z" fill="#081a28" stroke="#081a28"></path><path d="M576.7 319.5L586 317.5L568.3 308.6Z" fill="#205a7a" stroke="#205a7a"></path><path d="M568.3 308.6L581.7 260.5L497.3 293.5Z" fill="#081a28" stroke="#081a28"></path><path d="M495 398.6L554.7 382.7L496.3 392.8Z" fill="#205a7a" stroke="#205a7a"></path><path d="M427.7 213.4L371 255.4L465.7 280.5Z" fill="#246688" stroke="#246688"></path><path d="M586 317.5L581.7 260.5L568.3 308.6Z" fill="#19435d" stroke="#19435d"></path><path d="M509.3 234.4L522 162.4L471 220.5Z" fill="#19435d" stroke="#19435d"></path><path d="M371 255.4L359 308.6L379.7 319.6Z" fill="#00101c" stroke="#00101c"></path><path d="M379.7 319.6L359 308.6L387.3 344.5Z" fill="#277297" stroke="#277297"></path><path d="M367 443.8L421.3 433.9L422.3 397.6Z" fill="#081a28" stroke="#081a28"></path><path d="M422.3 397.6L476 427.8L495 398.6Z" fill="#00101c" stroke="#00101c"></path><path d="M567.3 425.7L578.7 395.6L554.7 382.7Z" fill="#205a7a" stroke="#205a7a"></path><path d="M581.7 260.5L547.7 197.3L509.3 234.4Z" fill="#0c2435" stroke="#0c2435"></path><path d="M466.7 154.3L425.3 163.4L427.7 213.4Z" fill="#277297" stroke="#277297"></path><path d="M655 260.5L590.3 242.5L581.7 260.5Z" fill="#0c2435" stroke="#0c2435"></path><path d="M581.7 260.5L590.3 242.5L547.7 197.3Z" fill="#277297" stroke="#277297"></path><path d="M422.3 397.6L461 436.7L476 427.8Z" fill="#1d4e6b" stroke="#1d4e6b"></path><path d="M567.3 425.7L554.7 382.7L495 398.6Z" fill="#15384f" stroke="#15384f"></path><path d="M567.3 425.7L495 398.6L524 471.9Z" fill="#297ea6" stroke="#297ea6"></path><path d="M554.7 382.7L578.7 395.6L576.7 319.5Z" fill="#1d4e6b" stroke="#1d4e6b"></path><path d="M367 443.8L422.3 397.6L387.3 344.5Z" fill="#19435d" stroke="#19435d"></path><path d="M422.3 397.6L421.3 433.9L461 436.7Z" fill="#277297" stroke="#277297"></path><path d="M466.7 154.3L427.7 213.4L471 220.5Z" fill="#277297" stroke="#277297"></path><path d="M427.7 213.4L351.3 185.5L371 255.4Z" fill="#0c2435" stroke="#0c2435"></path><path d="M578.3 184.3L522 162.4L547.7 197.3Z" fill="#00101c" stroke="#00101c"></path><path d="M547.7 197.3L522 162.4L509.3 234.4Z" fill="#19435d" stroke="#19435d"></path><path d="M522 162.4L466.7 154.3L471 220.5Z" fill="#277297" stroke="#277297"></path><path d="M524 471.9L495 398.6L476 427.8Z" fill="#0c2435" stroke="#0c2435"></path><path d="M590.3 242.5L578.3 184.3L547.7 197.3Z" fill="#1d4e6b" stroke="#1d4e6b"></path><path d="M301.7 355.6L317.3 359.7L359 308.6Z" fill="#0c2435" stroke="#0c2435"></path><path d="M359 308.6L317.3 359.7L387.3 344.5Z" fill="#246688" stroke="#246688"></path><path d="M292 236.5L308.7 267.5L371 255.4Z" fill="#1d4e6b" stroke="#1d4e6b"></path><path d="M371 255.4L308.7 267.5L359 308.6Z" fill="#081a28" stroke="#081a28"></path><path d="M425.3 163.4L351.3 185.5L427.7 213.4Z" fill="#19435d" stroke="#19435d"></path><path d="M485.7 490.9L476 427.8L461 436.7Z" fill="#112e42" stroke="#112e42"></path><path d="M485.7 490.9L524 471.9L476 427.8Z" fill="#277297" stroke="#277297"></path><path d="M317.3 359.7L367 443.8L387.3 344.5Z" fill="#19435d" stroke="#19435d"></path><path d="M421.3 433.9L411.7 475.8L461 436.7Z" fill="#246688" stroke="#246688"></path><path d="M641.3 211.4L611 185.4L590.3 242.5Z" fill="#0c2435" stroke="#0c2435"></path><path d="M590.3 242.5L611 185.4L578.3 184.3Z" fill="#205a7a" stroke="#205a7a"></path><path d="M578.3 184.3L595 155.3L522 162.4Z" fill="#1d4e6b" stroke="#1d4e6b"></path><path d="M655 260.5L581.7 260.5L658.3 272.5Z" fill="#00101c" stroke="#00101c"></path><path d="M308.7 267.5L301.7 355.6L359 308.6Z" fill="#205a7a" stroke="#205a7a"></path><path d="M317.3 359.7L261.7 431.7L367 443.8Z" fill="#277297" stroke="#277297"></path><path d="M367 443.8L411.7 475.8L421.3 433.9Z" fill="#19435d" stroke="#19435d"></path><path d="M658.3 272.5L586 317.5L677 288.6Z" fill="#297ea6" stroke="#297ea6"></path><path d="M658.3 272.5L581.7 260.5L586 317.5Z" fill="#246688" stroke="#246688"></path><path d="M690 374.7L586 317.5L578.7 395.6Z" fill="#081a28" stroke="#081a28"></path><path d="M411.7 475.8L485.7 490.9L461 436.7Z" fill="#19435d" stroke="#19435d"></path><path d="M655 260.5L641.3 211.4L590.3 242.5Z" fill="#00101c" stroke="#00101c"></path><path d="M638.7 176.4L595 155.3L611 185.4Z" fill="#15384f" stroke="#15384f"></path><path d="M611 185.4L595 155.3L578.3 184.3Z" fill="#277297" stroke="#277297"></path><path d="M466 107.1L465 107.2L466.7 154.3Z" fill="#277297" stroke="#277297"></path><path d="M351.3 185.5L292 236.5L371 255.4Z" fill="#19435d" stroke="#19435d"></path><path d="M308.7 267.5L272 347.7L301.7 355.6Z" fill="#081a28" stroke="#081a28"></path><path d="M524 471.9L563.7 477.8L567.3 425.7Z" fill="#19435d" stroke="#19435d"></path><path d="M567.3 425.7L637.3 422.7L578.7 395.6Z" fill="#0c2435" stroke="#0c2435"></path><path d="M568.7 527.9L563.7 477.8L524 471.9Z" fill="#1d4e6b" stroke="#1d4e6b"></path><path d="M466 107.1L466.7 154.3L493.3 105.2Z" fill="#112e42" stroke="#112e42"></path><path d="M466.7 154.3L465 107.2L425.3 163.4Z" fill="#1d4e6b" stroke="#1d4e6b"></path><path d="M352 114.2L320.3 165.3L351.3 185.5Z" fill="#15384f" stroke="#15384f"></path><path d="M493.3 105.2L466.7 154.3L522 162.4Z" fill="#246688" stroke="#246688"></path><path d="M498.3 100.1L493.3 105.2L522 162.4Z" fill="#19435d" stroke="#19435d"></path><path d="M563.7 477.8L637.3 422.7L567.3 425.7Z" fill="#112e42" stroke="#112e42"></path><path d="M658.3 272.5L677 288.6L655 260.5Z" fill="#277297" stroke="#277297"></path><path d="M655 260.5L713.3 186.5L641.3 211.4Z" fill="#081a28" stroke="#081a28"></path><path d="M690 374.7L677 288.6L586 317.5Z" fill="#081a28" stroke="#081a28"></path><path d="M530 88.3L498.3 100.1L522 162.4Z" fill="#00101c" stroke="#00101c"></path><path d="M493.3 105.2L498.3 100.1L466 107.1Z" fill="#081a28" stroke="#081a28"></path><path d="M466 107.1L443.7 77.2L465 107.2Z" fill="#246688" stroke="#246688"></path><path d="M638.7 176.4L588 131.2L595 155.3Z" fill="#297ea6" stroke="#297ea6"></path><path d="M595 155.3L588 131.2L522 162.4Z" fill="#0c2435" stroke="#0c2435"></path><path d="M352 114.2L351.3 185.5L425.3 163.4Z" fill="#15384f" stroke="#15384f"></path><path d="M351.3 185.5L320.3 165.3L292 236.5Z" fill="#19435d" stroke="#19435d"></path><path d="M713.3 186.5L638.7 176.4L641.3 211.4Z" fill="#15384f" stroke="#15384f"></path><path d="M641.3 211.4L638.7 176.4L611 185.4Z" fill="#1d4e6b" stroke="#1d4e6b"></path><path d="M233.3 266.5L272 347.7L308.7 267.5Z" fill="#1d4e6b" stroke="#1d4e6b"></path><path d="M261.7 431.7L345.3 490.8L367 443.8Z" fill="#246688" stroke="#246688"></path><path d="M563.7 477.8L647 436.8L637.3 422.7Z" fill="#277297" stroke="#277297"></path><path d="M637.3 422.7L690 374.7L578.7 395.6Z" fill="#15384f" stroke="#15384f"></path><path d="M278.7 153.3L266 230.5L292 236.5Z" fill="#081a28" stroke="#081a28"></path><path d="M292 236.5L251.7 239.4L308.7 267.5Z" fill="#246688" stroke="#246688"></path><path d="M588 131.2L530 88.3L522 162.4Z" fill="#15384f" stroke="#15384f"></path><path d="M498.3 100.1L443.7 77.2L466 107.1Z" fill="#0c2435" stroke="#0c2435"></path><path d="M414.3 74.2L425.3 163.4L465 107.2Z" fill="#277297" stroke="#277297"></path><path d="M414.3 74.2L352 114.2L425.3 163.4Z" fill="#112e42" stroke="#112e42"></path><path d="M215.7 239.5L251.7 239.4L208.3 202.5Z" fill="#19435d" stroke="#19435d"></path><path d="M647 436.8L690 374.7L637.3 422.7Z" fill="#297ea6" stroke="#297ea6"></path><path d="M440.7 27.1L443.7 77.2L498.3 100.1Z" fill="#00101c" stroke="#00101c"></path><path d="M367 443.8L345.3 490.8L411.7 475.8Z" fill="#0c2435" stroke="#0c2435"></path><path d="M446.7 540L493.3 531.9L485.7 490.9Z" fill="#081a28" stroke="#081a28"></path><path d="M261.7 431.7L317.3 359.7L301.7 355.6Z" fill="#297ea6" stroke="#297ea6"></path><path d="M496.3 540L493.3 531.9L446.7 540Z" fill="#112e42" stroke="#112e42"></path><path d="M485.7 490.9L510 540L524 471.9Z" fill="#0c2435" stroke="#0c2435"></path><path d="M563.7 477.8L659.3 497.9L647 436.8Z" fill="#0c2435" stroke="#0c2435"></path><path d="M278.7 153.3L292 236.5L320.3 165.3Z" fill="#0c2435" stroke="#0c2435"></path><path d="M266 230.5L251.7 239.4L292 236.5Z" fill="#112e42" stroke="#112e42"></path><path d="M443.7 77.2L414.3 74.2L465 107.2Z" fill="#19435d" stroke="#19435d"></path><path d="M446.7 540L485.7 490.9L411.7 475.8Z" fill="#297ea6" stroke="#297ea6"></path><path d="M493.3 531.9L510 540L485.7 490.9Z" fill="#19435d" stroke="#19435d"></path><path d="M411.3 540L446.7 540L411.7 475.8Z" fill="#205a7a" stroke="#205a7a"></path><path d="M496.3 540L510 540L493.3 531.9Z" fill="#1d4e6b" stroke="#1d4e6b"></path><path d="M661.3 44.2L567.7 81.2L588 131.2Z" fill="#297ea6" stroke="#297ea6"></path><path d="M588 131.2L567.7 81.2L530 88.3Z" fill="#0c2435" stroke="#0c2435"></path><path d="M530 88.3L440.7 27.1L498.3 100.1Z" fill="#297ea6" stroke="#297ea6"></path><path d="M443.7 77.2L440.7 27.1L414.3 74.2Z" fill="#15384f" stroke="#15384f"></path><path d="M510 540L568.7 527.9L524 471.9Z" fill="#081a28" stroke="#081a28"></path><path d="M251.7 239.4L233.3 266.5L308.7 267.5Z" fill="#00101c" stroke="#00101c"></path><path d="M345.3 490.8L411.3 540L411.7 475.8Z" fill="#297ea6" stroke="#297ea6"></path><path d="M298 99.3L320.3 165.3L352 114.2Z" fill="#112e42" stroke="#112e42"></path><path d="M298 99.3L278.7 153.3L320.3 165.3Z" fill="#277297" stroke="#277297"></path><path d="M251.7 239.4L215.7 239.5L233.3 266.5Z" fill="#081a28" stroke="#081a28"></path><path d="M246.3 420.7L301.7 355.6L272 347.7Z" fill="#00101c" stroke="#00101c"></path><path d="M246.3 420.7L261.7 431.7L301.7 355.6Z" fill="#0c2435" stroke="#0c2435"></path><path d="M345.3 490.8L341 540L411.3 540Z" fill="#0c2435" stroke="#0c2435"></path><path d="M510 540L558.7 540L568.7 527.9Z" fill="#081a28" stroke="#081a28"></path><path d="M568.7 527.9L592 529.9L563.7 477.8Z" fill="#1d4e6b" stroke="#1d4e6b"></path><path d="M558.7 540L592 529.9L568.7 527.9Z" fill="#081a28" stroke="#081a28"></path><path d="M705.7 446.7L721.3 375.6L690 374.7Z" fill="#19435d" stroke="#19435d"></path><path d="M705.7 446.7L690 374.7L647 436.8Z" fill="#297ea6" stroke="#297ea6"></path><path d="M690 374.7L737.7 349.6L677 288.6Z" fill="#277297" stroke="#277297"></path><path d="M753 255.5L713.3 186.5L655 260.5Z" fill="#00101c" stroke="#00101c"></path><path d="M213.3 363.6L246.3 420.7L272 347.7Z" fill="#297ea6" stroke="#297ea6"></path><path d="M261.7 431.7L320 520.9L345.3 490.8Z" fill="#205a7a" stroke="#205a7a"></path><path d="M753 255.5L655 260.5L677 288.6Z" fill="#112e42" stroke="#112e42"></path><path d="M638.7 176.4L704.3 104.1L588 131.2Z" fill="#1d4e6b" stroke="#1d4e6b"></path><path d="M208.3 202.5L251.7 239.4L266 230.5Z" fill="#1d4e6b" stroke="#1d4e6b"></path><path d="M198 317.6L213.3 363.6L272 347.7Z" fill="#246688" stroke="#246688"></path><path d="M721.3 375.6L737.7 349.6L690 374.7Z" fill="#246688" stroke="#246688"></path><path d="M262.3 540L320 520.9L261.7 431.7Z" fill="#246688" stroke="#246688"></path><path d="M592 529.9L659.3 497.9L563.7 477.8Z" fill="#112e42" stroke="#112e42"></path><path d="M721.3 375.6L745 361.7L737.7 349.6Z" fill="#205a7a" stroke="#205a7a"></path><path d="M198 317.6L272 347.7L233.3 266.5Z" fill="#112e42" stroke="#112e42"></path><path d="M312 16.1L298 99.3L352 114.2Z" fill="#15384f" stroke="#15384f"></path><path d="M278.7 153.3L208.3 202.5L266 230.5Z" fill="#246688" stroke="#246688"></path><path d="M737.7 349.6L744.7 295.5L677 288.6Z" fill="#0c2435" stroke="#0c2435"></path><path d="M699.3 485.8L705.7 446.7L647 436.8Z" fill="#112e42" stroke="#112e42"></path><path d="M320 520.9L341 540L345.3 490.8Z" fill="#1d4e6b" stroke="#1d4e6b"></path><path d="M787.7 413.8L745 361.7L721.3 375.6Z" fill="#205a7a" stroke="#205a7a"></path><path d="M737.7 349.6L800 301.6L744.7 295.5Z" fill="#00101c" stroke="#00101c"></path><path d="M163 263.5L198 317.6L233.3 266.5Z" fill="#19435d" stroke="#19435d"></path><path d="M452 0L440.7 27.1L530 88.3Z" fill="#15384f" stroke="#15384f"></path><path d="M414.3 74.2L312 16.1L352 114.2Z" fill="#0c2435" stroke="#0c2435"></path><path d="M790.7 245.5L753 255.5L799.3 281.5Z" fill="#15384f" stroke="#15384f"></path><path d="M744.7 295.5L753 255.5L677 288.6Z" fill="#19435d" stroke="#19435d"></path><path d="M246.3 112.2L208.3 202.5L278.7 153.3Z" fill="#00101c" stroke="#00101c"></path><path d="M215.7 239.5L163 263.5L233.3 266.5Z" fill="#00101c" stroke="#00101c"></path><path d="M592 529.9L634.3 540L659.3 497.9Z" fill="#1d4e6b" stroke="#1d4e6b"></path><path d="M659.3 497.9L699.3 485.8L647 436.8Z" fill="#081a28" stroke="#081a28"></path><path d="M558.7 540L634.3 540L592 529.9Z" fill="#00101c" stroke="#00101c"></path><path d="M213.3 363.6L221.7 440.8L246.3 420.7Z" fill="#081a28" stroke="#081a28"></path><path d="M246.3 420.7L224.3 451.8L261.7 431.7Z" fill="#246688" stroke="#246688"></path><path d="M320 520.9L310.7 540L341 540Z" fill="#15384f" stroke="#15384f"></path><path d="M196.3 465.9L221.7 440.8L120 399.7Z" fill="#205a7a" stroke="#205a7a"></path><path d="M262.3 540L310.7 540L320 520.9Z" fill="#15384f" stroke="#15384f"></path><path d="M696 540L699.3 485.8L659.3 497.9Z" fill="#0c2435" stroke="#0c2435"></path><path d="M705.7 446.7L742 451.9L721.3 375.6Z" fill="#19435d" stroke="#19435d"></path><path d="M221.7 440.8L224.3 451.8L246.3 420.7Z" fill="#081a28" stroke="#081a28"></path><path d="M753 255.5L741 182.3L713.3 186.5Z" fill="#19435d" stroke="#19435d"></path><path d="M713.3 186.5L704.3 104.1L638.7 176.4Z" fill="#112e42" stroke="#112e42"></path><path d="M298 99.3L246.3 112.2L278.7 153.3Z" fill="#112e42" stroke="#112e42"></path><path d="M228.7 109.2L246.3 112.2L226.7 73.1Z" fill="#00101c" stroke="#00101c"></path><path d="M732.7 127.3L704.3 104.1L713.3 186.5Z" fill="#112e42" stroke="#112e42"></path><path d="M549.3 0L452 0L530 88.3Z" fill="#15384f" stroke="#15384f"></path><path d="M549.3 0L530 88.3L567.7 81.2Z" fill="#00101c" stroke="#00101c"></path><path d="M440.7 27.1L407.7 0L414.3 74.2Z" fill="#081a28" stroke="#081a28"></path><path d="M774 467.8L742 451.9L699.3 485.8Z" fill="#081a28" stroke="#081a28"></path><path d="M699.3 485.8L742 451.9L705.7 446.7Z" fill="#297ea6" stroke="#297ea6"></path><path d="M799.3 281.5L753 255.5L744.7 295.5Z" fill="#205a7a" stroke="#205a7a"></path><path d="M452 0L407.7 0L440.7 27.1Z" fill="#297ea6" stroke="#297ea6"></path><path d="M661.3 44.2L593.7 16.1L567.7 81.2Z" fill="#00101c" stroke="#00101c"></path><path d="M741 182.3L732.7 127.3L713.3 186.5Z" fill="#00101c" stroke="#00101c"></path><path d="M746.3 101.3L732.7 127.3L798.7 142.4Z" fill="#081a28" stroke="#081a28"></path><path d="M593.7 16.1L549.3 0L567.7 81.2Z" fill="#205a7a" stroke="#205a7a"></path><path d="M239.3 62.1L246.3 112.2L298 99.3Z" fill="#277297" stroke="#277297"></path><path d="M246.3 112.2L228.7 109.2L208.3 202.5Z" fill="#1d4e6b" stroke="#1d4e6b"></path><path d="M163 263.5L215.7 239.5L156 229.5Z" fill="#205a7a" stroke="#205a7a"></path><path d="M153.3 250.4L163 263.5L156 229.5Z" fill="#277297" stroke="#277297"></path><path d="M137.7 371.6L221.7 440.8L213.3 363.6Z" fill="#1d4e6b" stroke="#1d4e6b"></path><path d="M221.7 440.8L196.3 465.9L224.3 451.8Z" fill="#277297" stroke="#277297"></path><path d="M407.7 0L390.3 0L414.3 74.2Z" fill="#1d4e6b" stroke="#1d4e6b"></path><path d="M224.3 451.8L262.3 540L261.7 431.7Z" fill="#081a28" stroke="#081a28"></path><path d="M704.3 104.1L661.3 44.2L588 131.2Z" fill="#297ea6" stroke="#297ea6"></path><path d="M713.7 59.1L661.3 44.2L704.3 104.1Z" fill="#15384f" stroke="#15384f"></path><path d="M800 301.6L737.7 349.6L745 361.7Z" fill="#246688" stroke="#246688"></path><path d="M753 255.5L790.7 245.5L741 182.3Z" fill="#297ea6" stroke="#297ea6"></path><path d="M150.7 342.5L213.3 363.6L198 317.6Z" fill="#1d4e6b" stroke="#1d4e6b"></path><path d="M224.3 451.8L221.7 519.9L262.3 540Z" fill="#1d4e6b" stroke="#1d4e6b"></path><path d="M634.3 540L696 540L659.3 497.9Z" fill="#19435d" stroke="#19435d"></path><path d="M844.3 326.6L800 301.6L745 361.7Z" fill="#15384f" stroke="#15384f"></path><path d="M801 296.5L799.3 281.5L744.7 295.5Z" fill="#297ea6" stroke="#297ea6"></path><path d="M156 229.5L215.7 239.5L208.3 202.5Z" fill="#0c2435" stroke="#0c2435"></path><path d="M163 263.5L150.7 342.5L198 317.6Z" fill="#277297" stroke="#277297"></path><path d="M800 301.6L801 296.5L744.7 295.5Z" fill="#15384f" stroke="#15384f"></path><path d="M102.3 243.4L150.7 342.5L163 263.5Z" fill="#1d4e6b" stroke="#1d4e6b"></path><path d="M452 0L379.3 -9.9L407.7 0Z" fill="#112e42" stroke="#112e42"></path><path d="M407.7 0L379.3 -9.9L390.3 0Z" fill="#277297" stroke="#277297"></path><path d="M390.3 0L312 16.1L414.3 74.2Z" fill="#081a28" stroke="#081a28"></path><path d="M549.3 0L379.3 -9.9L452 0Z" fill="#1d4e6b" stroke="#1d4e6b"></path><path d="M143 178.4L156 229.5L208.3 202.5Z" fill="#15384f" stroke="#15384f"></path><path d="M379.3 -9.9L312 16.1L390.3 0Z" fill="#081a28" stroke="#081a28"></path><path d="M134.7 490.9L204 493.8L196.3 465.9Z" fill="#297ea6" stroke="#297ea6"></path><path d="M196.3 465.9L204 493.8L224.3 451.8Z" fill="#00101c" stroke="#00101c"></path><path d="M774 467.8L787.7 413.8L742 451.9Z" fill="#297ea6" stroke="#297ea6"></path><path d="M742 451.9L787.7 413.8L721.3 375.6Z" fill="#277297" stroke="#277297"></path><path d="M819.3 280.5L799.3 281.5L801 296.5Z" fill="#00101c" stroke="#00101c"></path><path d="M661.3 44.2L612.7 0L593.7 16.1Z" fill="#081a28" stroke="#081a28"></path><path d="M593.7 16.1L612.7 0L549.3 0Z" fill="#246688" stroke="#246688"></path><path d="M549.3 0L612.7 0L379.3 -9.9Z" fill="#205a7a" stroke="#205a7a"></path><path d="M204 493.8L221.7 519.9L224.3 451.8Z" fill="#277297" stroke="#277297"></path><path d="M312 16.1L239.3 62.1L298 99.3Z" fill="#277297" stroke="#277297"></path><path d="M146.7 135.2L143 178.4L208.3 202.5Z" fill="#205a7a" stroke="#205a7a"></path><path d="M798.7 142.4L732.7 127.3L741 182.3Z" fill="#00101c" stroke="#00101c"></path><path d="M732.7 127.3L746.3 101.3L704.3 104.1Z" fill="#19435d" stroke="#19435d"></path><path d="M661.3 44.2L649.3 0L612.7 0Z" fill="#297ea6" stroke="#297ea6"></path><path d="M239.3 62.1L226.7 73.1L246.3 112.2Z" fill="#205a7a" stroke="#205a7a"></path><path d="M799.3 281.5L812 253.4L790.7 245.5Z" fill="#205a7a" stroke="#205a7a"></path><path d="M790.7 245.5L798.7 142.4L741 182.3Z" fill="#0c2435" stroke="#0c2435"></path><path d="M819.3 280.5L812 253.4L799.3 281.5Z" fill="#205a7a" stroke="#205a7a"></path><path d="M819.3 280.5L801 296.5L800 301.6Z" fill="#297ea6" stroke="#297ea6"></path><path d="M746.3 101.3L713.7 59.1L704.3 104.1Z" fill="#277297" stroke="#277297"></path><path d="M768.7 540L774 467.8L699.3 485.8Z" fill="#246688" stroke="#246688"></path><path d="M94.3 362.6L137.7 371.6L150.7 342.5Z" fill="#00101c" stroke="#00101c"></path><path d="M150.7 342.5L137.7 371.6L213.3 363.6Z" fill="#297ea6" stroke="#297ea6"></path><path d="M120 399.7L137.7 371.6L94.3 362.6Z" fill="#081a28" stroke="#081a28"></path><path d="M713.7 59.1L671 19.1L661.3 44.2Z" fill="#1d4e6b" stroke="#1d4e6b"></path><path d="M844.3 326.6L819.3 280.5L800 301.6Z" fill="#297ea6" stroke="#297ea6"></path><path d="M671 19.1L649.3 0L661.3 44.2Z" fill="#081a28" stroke="#081a28"></path><path d="M612.7 0L649.3 0L379.3 -9.9Z" fill="#15384f" stroke="#15384f"></path><path d="M774 467.8L788.7 462.9L787.7 413.8Z" fill="#081a28" stroke="#081a28"></path><path d="M787.7 413.8L844.3 326.6L745 361.7Z" fill="#081a28" stroke="#081a28"></path><path d="M768.7 540L788.7 462.9L774 467.8Z" fill="#205a7a" stroke="#205a7a"></path><path d="M312 16.1L278.7 0L239.3 62.1Z" fill="#081a28" stroke="#081a28"></path><path d="M239.3 62.1L211 68.1L226.7 73.1Z" fill="#15384f" stroke="#15384f"></path><path d="M379.3 -9.9L294 0L312 16.1Z" fill="#112e42" stroke="#112e42"></path><path d="M164.3 0L211 68.1L239.3 62.1Z" fill="#19435d" stroke="#19435d"></path><path d="M226.7 73.1L211 68.1L228.7 109.2Z" fill="#112e42" stroke="#112e42"></path><path d="M737.7 0L658 0L671 19.1Z" fill="#297ea6" stroke="#297ea6"></path><path d="M671 19.1L658 0L649.3 0Z" fill="#081a28" stroke="#081a28"></path><path d="M649.3 0L658 0L379.3 -9.9Z" fill="#00101c" stroke="#00101c"></path><path d="M159 121.2L208.3 202.5L228.7 109.2Z" fill="#0c2435" stroke="#0c2435"></path><path d="M156 229.5L102.3 243.4L153.3 250.4Z" fill="#00101c" stroke="#00101c"></path><path d="M379.3 -9.9L278.7 0L294 0Z" fill="#112e42" stroke="#112e42"></path><path d="M294 0L278.7 0L312 16.1Z" fill="#00101c" stroke="#00101c"></path><path d="M861.7 185.3L798.7 142.4L790.7 245.5Z" fill="#0c2435" stroke="#0c2435"></path><path d="M791 43.2L737.7 0L713.7 59.1Z" fill="#15384f" stroke="#15384f"></path><path d="M713.7 59.1L737.7 0L671 19.1Z" fill="#246688" stroke="#246688"></path><path d="M816 101.1L798.7 142.4L876.3 138.3Z" fill="#00101c" stroke="#00101c"></path><path d="M157.3 89.3L159 121.2L228.7 109.2Z" fill="#081a28" stroke="#081a28"></path><path d="M102.3 243.4L163 263.5L153.3 250.4Z" fill="#205a7a" stroke="#205a7a"></path><path d="M137.7 371.6L120 399.7L221.7 440.8Z" fill="#00101c" stroke="#00101c"></path><path d="M204 493.8L127 540L221.7 519.9Z" fill="#00101c" stroke="#00101c"></path><path d="M159 121.2L146.7 135.2L208.3 202.5Z" fill="#19435d" stroke="#19435d"></path><path d="M143 178.4L102.3 243.4L156 229.5Z" fill="#1d4e6b" stroke="#1d4e6b"></path><path d="M864.3 423.8L844.3 326.6L787.7 413.8Z" fill="#297ea6" stroke="#297ea6"></path><path d="M867.7 186.5L861.7 185.3L877.7 215.4Z" fill="#277297" stroke="#277297"></path><path d="M78.7 217.5L102.3 243.4L143 178.4Z" fill="#0c2435" stroke="#0c2435"></path><path d="M696 540L768.7 540L699.3 485.8Z" fill="#00101c" stroke="#00101c"></path><path d="M788.7 462.9L859.3 434.9L787.7 413.8Z" fill="#112e42" stroke="#112e42"></path><path d="M159 121.2L157.3 89.3L146.7 135.2Z" fill="#246688" stroke="#246688"></path><path d="M146.7 135.2L102 157.3L143 178.4Z" fill="#0c2435" stroke="#0c2435"></path><path d="M211 68.1L157.3 89.3L228.7 109.2Z" fill="#0c2435" stroke="#0c2435"></path><path d="M140.7 37.1L157.3 89.3L211 68.1Z" fill="#19435d" stroke="#19435d"></path><path d="M102.3 243.4L94.3 362.6L150.7 342.5Z" fill="#081a28" stroke="#081a28"></path><path d="M88.7 444.8L134.7 490.9L120 399.7Z" fill="#15384f" stroke="#15384f"></path><path d="M120 399.7L134.7 490.9L196.3 465.9Z" fill="#15384f" stroke="#15384f"></path><path d="M221.7 519.9L127 540L262.3 540Z" fill="#297ea6" stroke="#297ea6"></path><path d="M861.7 185.3L790.7 245.5L812 253.4Z" fill="#081a28" stroke="#081a28"></path><path d="M798.7 142.4L816 101.1L746.3 101.3Z" fill="#1d4e6b" stroke="#1d4e6b"></path><path d="M78.3 102.3L102 157.3L146.7 135.2Z" fill="#19435d" stroke="#19435d"></path><path d="M102.3 243.4L49.3 260.5L94.3 362.6Z" fill="#0c2435" stroke="#0c2435"></path><path d="M791 43.2L713.7 59.1L746.3 101.3Z" fill="#00101c" stroke="#00101c"></path><path d="M658 0L737.7 0L379.3 -9.9Z" fill="#1d4e6b" stroke="#1d4e6b"></path><path d="M861.7 185.3L812 253.4L877.7 215.4Z" fill="#1d4e6b" stroke="#1d4e6b"></path><path d="M71.7 201.3L78.7 217.5L143 178.4Z" fill="#15384f" stroke="#15384f"></path><path d="M842 540L859.3 434.9L788.7 462.9Z" fill="#081a28" stroke="#081a28"></path><path d="M877.7 215.4L812 253.4L819.3 280.5Z" fill="#19435d" stroke="#19435d"></path><path d="M859.3 434.9L864.3 423.8L787.7 413.8Z" fill="#205a7a" stroke="#205a7a"></path><path d="M795.7 43.2L791 43.2L816 101.1Z" fill="#081a28" stroke="#081a28"></path><path d="M816 101.1L791 43.2L746.3 101.3Z" fill="#19435d" stroke="#19435d"></path><path d="M877.7 215.4L819.3 280.5L933.7 273.5Z" fill="#081a28" stroke="#081a28"></path><path d="M861.7 185.3L876.3 138.3L798.7 142.4Z" fill="#1d4e6b" stroke="#1d4e6b"></path><path d="M52.3 392.8L77.7 404.7L94.3 362.6Z" fill="#081a28" stroke="#081a28"></path><path d="M94.3 362.6L77.7 404.7L120 399.7Z" fill="#0c2435" stroke="#0c2435"></path><path d="M77.7 404.7L88.7 444.8L120 399.7Z" fill="#081a28" stroke="#081a28"></path><path d="M88.7 444.8L116 504.9L134.7 490.9Z" fill="#19435d" stroke="#19435d"></path><path d="M134.7 490.9L127 540L204 493.8Z" fill="#1d4e6b" stroke="#1d4e6b"></path><path d="M933.7 273.5L819.3 280.5L844.3 326.6Z" fill="#00101c" stroke="#00101c"></path><path d="M831.3 29.1L795.7 43.2L816 101.1Z" fill="#277297" stroke="#277297"></path><path d="M791 43.2L773 0L737.7 0Z" fill="#00101c" stroke="#00101c"></path><path d="M859.3 434.9L873.7 417.7L864.3 423.8Z" fill="#112e42" stroke="#112e42"></path><path d="M864.3 423.8L873.7 417.7L844.3 326.6Z" fill="#246688" stroke="#246688"></path><path d="M102 157.3L71.7 201.3L143 178.4Z" fill="#00101c" stroke="#00101c"></path><path d="M78.7 217.5L54.3 250.5L102.3 243.4Z" fill="#1d4e6b" stroke="#1d4e6b"></path><path d="M80.7 540L127 540L116 504.9Z" fill="#246688" stroke="#246688"></path><path d="M116 504.9L127 540L134.7 490.9Z" fill="#00101c" stroke="#00101c"></path><path d="M768.7 540L824.3 540L788.7 462.9Z" fill="#246688" stroke="#246688"></path><path d="M960 422.7L907.3 398.7L960 433.8Z" fill="#00101c" stroke="#00101c"></path><path d="M899.7 381.8L895.7 342.6L844.3 326.6Z" fill="#277297" stroke="#277297"></path><path d="M55.7 197.4L54.3 250.5L78.7 217.5Z" fill="#081a28" stroke="#081a28"></path><path d="M807.3 0L773 0L791 43.2Z" fill="#15384f" stroke="#15384f"></path><path d="M737.7 0L773 0L379.3 -9.9Z" fill="#112e42" stroke="#112e42"></path><path d="M80.3 97.1L78.3 102.3L146.7 135.2Z" fill="#081a28" stroke="#081a28"></path><path d="M102 157.3L55.7 197.4L71.7 201.3Z" fill="#081a28" stroke="#081a28"></path><path d="M164.3 0L140.7 37.1L211 68.1Z" fill="#112e42" stroke="#112e42"></path><path d="M0 254.4L49.3 260.5L54.3 250.5Z" fill="#246688" stroke="#246688"></path><path d="M54.3 250.5L49.3 260.5L102.3 243.4Z" fill="#1d4e6b" stroke="#1d4e6b"></path><path d="M34.3 357.7L52.3 392.8L94.3 362.6Z" fill="#15384f" stroke="#15384f"></path><path d="M77.7 404.7L52.3 392.8L88.7 444.8Z" fill="#15384f" stroke="#15384f"></path><path d="M63.3 532.9L80.7 540L116 504.9Z" fill="#246688" stroke="#246688"></path><path d="M907.3 398.7L899.7 381.8L873.7 417.7Z" fill="#15384f" stroke="#15384f"></path><path d="M873.7 417.7L899.7 381.8L844.3 326.6Z" fill="#19435d" stroke="#19435d"></path><path d="M71.7 201.3L55.7 197.4L78.7 217.5Z" fill="#15384f" stroke="#15384f"></path><path d="M33.3 152.2L55.7 197.4L102 157.3Z" fill="#277297" stroke="#277297"></path><path d="M278.7 0L164.3 0L239.3 62.1Z" fill="#081a28" stroke="#081a28"></path><path d="M379.3 -9.9L164.3 0L278.7 0Z" fill="#205a7a" stroke="#205a7a"></path><path d="M867.7 186.5L876.3 138.3L861.7 185.3Z" fill="#1d4e6b" stroke="#1d4e6b"></path><path d="M795.7 43.2L807.3 0L791 43.2Z" fill="#081a28" stroke="#081a28"></path><path d="M903.3 175.4L876.3 138.3L867.7 186.5Z" fill="#19435d" stroke="#19435d"></path><path d="M903.3 175.4L867.7 186.5L877.7 215.4Z" fill="#0c2435" stroke="#0c2435"></path><path d="M903.3 175.4L877.7 215.4L960 233.5Z" fill="#15384f" stroke="#15384f"></path><path d="M379.3 -9.9L161 0L164.3 0Z" fill="#081a28" stroke="#081a28"></path><path d="M164.3 0L161 0L140.7 37.1Z" fill="#112e42" stroke="#112e42"></path><path d="M824.3 540L842 540L788.7 462.9Z" fill="#277297" stroke="#277297"></path><path d="M907.3 398.7L953.7 458.9L960 433.8Z" fill="#0c2435" stroke="#0c2435"></path><path d="M899.7 381.8L960 334.6L895.7 342.6Z" fill="#112e42" stroke="#112e42"></path><path d="M379.3 -9.9L150.7 0L161 0Z" fill="#297ea6" stroke="#297ea6"></path><path d="M161 0L150.7 0L140.7 37.1Z" fill="#19435d" stroke="#19435d"></path><path d="M80.3 97.1L146.7 135.2L157.3 89.3Z" fill="#0c2435" stroke="#0c2435"></path><path d="M49.3 260.5L34.3 357.7L94.3 362.6Z" fill="#0c2435" stroke="#0c2435"></path><path d="M63.3 532.9L116 504.9L88.7 444.8Z" fill="#0c2435" stroke="#0c2435"></path><path d="M0 318.5L34.3 357.7L49.3 260.5Z" fill="#205a7a" stroke="#205a7a"></path><path d="M80.3 97.1L157.3 89.3L140.7 37.1Z" fill="#246688" stroke="#246688"></path><path d="M52.3 0L80.3 97.1L140.7 37.1Z" fill="#297ea6" stroke="#297ea6"></path><path d="M933.7 273.5L844.3 326.6L895.7 342.6Z" fill="#205a7a" stroke="#205a7a"></path><path d="M893.3 97.2L816 101.1L876.3 138.3Z" fill="#19435d" stroke="#19435d"></path><path d="M893.3 97.2L831.3 29.1L816 101.1Z" fill="#081a28" stroke="#081a28"></path><path d="M831.3 29.1L807.3 0L795.7 43.2Z" fill="#0c2435" stroke="#0c2435"></path><path d="M773 0L807.3 0L379.3 -9.9Z" fill="#1d4e6b" stroke="#1d4e6b"></path><path d="M960 334.6L933.7 273.5L895.7 342.6Z" fill="#246688" stroke="#246688"></path><path d="M63.3 532.9L88.7 444.8L0 502.9Z" fill="#0c2435" stroke="#0c2435"></path><path d="M927.7 146.2L893.3 97.2L876.3 138.3Z" fill="#19435d" stroke="#19435d"></path><path d="M831.3 29.1L911.7 0L807.3 0Z" fill="#112e42" stroke="#112e42"></path><path d="M927.7 146.2L876.3 138.3L903.3 175.4Z" fill="#112e42" stroke="#112e42"></path><path d="M0 128.3L78.3 102.3L0 68.2Z" fill="#1d4e6b" stroke="#1d4e6b"></path><path d="M0 128.3L33.3 152.2L78.3 102.3Z" fill="#19435d" stroke="#19435d"></path><path d="M78.3 102.3L33.3 152.2L102 157.3Z" fill="#112e42" stroke="#112e42"></path><path d="M0 212.5L0 254.4L54.3 250.5Z" fill="#15384f" stroke="#15384f"></path><path d="M0 430.8L88.7 444.8L52.3 392.8Z" fill="#0c2435" stroke="#0c2435"></path><path d="M842 540L886.7 540L859.3 434.9Z" fill="#277297" stroke="#277297"></path><path d="M907.3 398.7L960 334.6L899.7 381.8Z" fill="#1d4e6b" stroke="#1d4e6b"></path><path d="M0 254.4L0 318.5L49.3 260.5Z" fill="#15384f" stroke="#15384f"></path><path d="M34.3 357.7L0 384.7L52.3 392.8Z" fill="#00101c" stroke="#00101c"></path><path d="M0 318.5L0 328.6L34.3 357.7Z" fill="#19435d" stroke="#19435d"></path><path d="M0 212.5L54.3 250.5L55.7 197.4Z" fill="#15384f" stroke="#15384f"></path><path d="M960 157.3L927.7 146.2L903.3 175.4Z" fill="#1d4e6b" stroke="#1d4e6b"></path><path d="M0 328.6L0 384.7L34.3 357.7Z" fill="#1d4e6b" stroke="#1d4e6b"></path><path d="M33.3 152.2L0 212.5L55.7 197.4Z" fill="#297ea6" stroke="#297ea6"></path><path d="M960 422.7L960 334.6L907.3 398.7Z" fill="#205a7a" stroke="#205a7a"></path><path d="M933.7 273.5L960 233.5L877.7 215.4Z" fill="#0c2435" stroke="#0c2435"></path><path d="M960 334.6L960 243.4L933.7 273.5Z" fill="#1d4e6b" stroke="#1d4e6b"></path><path d="M960 243.4L960 236.5L933.7 273.5Z" fill="#00101c" stroke="#00101c"></path><path d="M960 236.5L960 233.5L933.7 273.5Z" fill="#297ea6" stroke="#297ea6"></path><path d="M0 384.7L0 430.8L52.3 392.8Z" fill="#205a7a" stroke="#205a7a"></path><path d="M907.3 398.7L873.7 417.7L953.7 458.9Z" fill="#246688" stroke="#246688"></path><path d="M0 502.9L34.3 540L63.3 532.9Z" fill="#19435d" stroke="#19435d"></path><path d="M63.3 532.9L34.3 540L80.7 540Z" fill="#19435d" stroke="#19435d"></path><path d="M953.7 458.9L873.7 417.7L859.3 434.9Z" fill="#081a28" stroke="#081a28"></path><path d="M886.7 540L953.7 458.9L859.3 434.9Z" fill="#00101c" stroke="#00101c"></path><path d="M0 68.2L78.3 102.3L80.3 97.1Z" fill="#297ea6" stroke="#297ea6"></path><path d="M33.3 152.2L0 128.3L0 212.5Z" fill="#1d4e6b" stroke="#1d4e6b"></path><path d="M960 233.5L960 157.3L903.3 175.4Z" fill="#081a28" stroke="#081a28"></path><path d="M927.7 146.2L960 142.2L893.3 97.2Z" fill="#081a28" stroke="#081a28"></path><path d="M893.3 97.2L933.7 37.1L831.3 29.1Z" fill="#205a7a" stroke="#205a7a"></path><path d="M960 157.3L960 142.2L927.7 146.2Z" fill="#1d4e6b" stroke="#1d4e6b"></path><path d="M0 430.8L0 502.9L88.7 444.8Z" fill="#15384f" stroke="#15384f"></path><path d="M886.7 540L960 481.9L953.7 458.9Z" fill="#112e42" stroke="#112e42"></path><path d="M953.7 458.9L960 481.9L960 433.8Z" fill="#15384f" stroke="#15384f"></path><path d="M379.3 -9.9L52.3 0L150.7 0Z" fill="#297ea6" stroke="#297ea6"></path><path d="M150.7 0L52.3 0L140.7 37.1Z" fill="#081a28" stroke="#081a28"></path><path d="M52.3 0L0 68.2L80.3 97.1Z" fill="#19435d" stroke="#19435d"></path><path d="M960 142.2L933.7 37.1L893.3 97.2Z" fill="#297ea6" stroke="#297ea6"></path><path d="M0 502.9L0 540L34.3 540Z" fill="#277297" stroke="#277297"></path><path d="M933.7 37.1L911.7 0L831.3 29.1Z" fill="#0c2435" stroke="#0c2435"></path><path d="M807.3 0L911.7 0L379.3 -9.9Z" fill="#1d4e6b" stroke="#1d4e6b"></path><path d="M886.7 540L960 540L960 481.9Z" fill="#277297" stroke="#277297"></path><path d="M52.3 0L0 35.1L0 68.2Z" fill="#297ea6" stroke="#297ea6"></path><path d="M960 142.2L960 21.1L933.7 37.1Z" fill="#277297" stroke="#277297"></path><path d="M933.7 37.1L960 21.1L911.7 0Z" fill="#297ea6" stroke="#297ea6"></path><path d="M379.3 -9.9L0 0L52.3 0Z" fill="#277297" stroke="#277297"></path><path d="M52.3 0L0 0L0 35.1Z" fill="#112e42" stroke="#112e42"></path><path d="M960 21.1L960 0L911.7 0Z" fill="#00101c" stroke="#00101c"></path><path d="M911.7 0L960 0L379.3 -9.9Z" fill="#15384f" stroke="#15384f"></path></g></svg>